<?xml version="1.0" standalone="no"?>
<!DOCTYPE svg PUBLIC "-//W3C//DTD SVG 20010904//EN"
 "http://www.w3.org/TR/2001/REC-SVG-20010904/DTD/svg10.dtd">
<svg version="1.0" xmlns="http://www.w3.org/2000/svg"
 width="146.000000pt" height="227.000000pt" viewBox="0 0 146.000000 227.000000"
 preserveAspectRatio="xMidYMid meet">

<g transform="translate(0.000000,227.000000) scale(0.100000,-0.100000)"
fill="#000000" stroke="none">
<path d="M632 1815 c-57 -27 -92 -50 -92 -60 0 -8 4 -15 9 -15 12 0 190 100
196 111 12 19 -25 7 -113 -36z"/>
<path d="M786 1835 c-9 -14 -59 -53 -111 -86 -52 -34 -95 -64 -95 -67 1 -14
28 -42 39 -42 31 0 206 138 216 171 6 19 -9 49 -25 49 -4 0 -15 -11 -24 -25z"/>
<path d="M452 1707 c-12 -13 -22 -31 -22 -40 0 -16 4 -15 30 5 17 12 30 30 30
40 0 24 -12 23 -38 -5z"/>
<path d="M481 1610 c-33 -28 -34 -29 -17 -55 l17 -25 34 26 c39 30 43 44 18
67 -17 14 -21 13 -52 -13z"/>
<path d="M593 1501 c-18 -15 -33 -32 -33 -37 0 -13 66 -64 82 -64 15 1 85 57
78 62 -59 46 -89 68 -91 68 -2 -1 -19 -13 -36 -29z"/>
<path d="M383 1488 c-8 -17 -8 -30 0 -44 15 -29 17 -30 27 -14 13 21 12 43 -3
64 -12 17 -14 16 -24 -6z"/>
<path d="M740 1380 c-22 -18 -31 -32 -25 -37 6 -5 42 -34 80 -65 39 -32 79
-71 90 -87 11 -17 23 -31 26 -31 4 0 11 19 17 42 8 32 7 49 -5 80 -8 21 -18
38 -22 38 -3 0 -28 21 -56 45 -27 25 -54 45 -60 45 -5 0 -26 -14 -45 -30z"/>
<path d="M472 1378 c-19 -19 -14 -31 25 -61 34 -25 37 -26 55 -10 25 22 23 27
-22 57 -46 30 -43 29 -58 14z"/>
<path d="M610 1275 c-11 -13 -5 -23 32 -63 24 -26 59 -77 78 -114 31 -61 38
-68 65 -68 36 0 95 34 95 55 0 26 -59 83 -151 145 -49 33 -93 60 -98 60 -5 0
-14 -7 -21 -15z"/>
<path d="M440 1275 c0 -9 62 -75 71 -75 4 0 6 8 2 18 -9 26 -73 77 -73 57z"/>
<path d="M560 1168 c1 -18 6 -43 13 -55 14 -25 127 -98 127 -82 0 31 -107 169
-131 169 -5 0 -9 -15 -9 -32z"/>
<path d="M641 948 c1 -16 3 -18 6 -6 2 9 12 19 21 21 12 3 10 5 -5 6 -18 1
-23 -4 -22 -21z"/>
<path d="M693 955 c-3 -9 -3 -19 1 -22 3 -4 6 1 6 10 0 8 8 18 18 20 16 4 16
5 -1 6 -10 0 -20 -6 -24 -14z"/>
<path d="M747 963 c-10 -10 -8 -33 3 -33 5 0 7 6 4 14 -3 8 2 16 13 19 14 4
14 5 2 6 -9 0 -19 -2 -22 -6z"/>
<path d="M800 960 c0 -5 7 -7 15 -4 8 4 15 8 15 10 0 2 -7 4 -15 4 -8 0 -15
-4 -15 -10z"/>
<path d="M870 944 c0 -8 5 -12 10 -9 6 3 10 10 10 16 0 5 -4 9 -10 9 -5 0 -10
-7 -10 -16z"/>
<path d="M630 873 c0 -10 30 -13 122 -13 153 0 146 17 -9 22 -86 2 -113 0
-113 -9z"/>
<path d="M650 795 c-11 -13 -7 -15 27 -15 76 0 193 13 193 21 0 5 -47 9 -104
9 -80 0 -106 -3 -116 -15z"/>
<path d="M696 725 c5 -11 23 -15 75 -15 38 0 69 4 69 9 0 10 -58 21 -112 21
-29 0 -36 -3 -32 -15z"/>
<path d="M727 648 c4 -7 8 -60 8 -118 1 -58 5 -132 10 -165 9 -57 10 -58 16
-25 6 31 7 28 8 -20 1 -36 4 -50 10 -41 5 8 7 25 5 38 -3 17 -1 22 7 17 8 -5
10 5 7 35 -2 22 0 41 4 41 5 0 7 39 6 88 l-2 87 -6 -75 -6 -75 -2 82 c-1 57 2
83 11 86 9 4 8 8 -3 16 -10 7 -11 11 -2 11 6 0 12 7 12 15 0 11 -12 15 -46 15
-34 0 -43 -3 -37 -12z m40 -170 c-2 -24 -4 -5 -4 42 0 47 2 66 4 43 2 -24 2
-62 0 -85z"/>
</g>
</svg>
